<?xml version="1.0" encoding="UTF-8"?>
<svg id="Layer_2" data-name="Layer 2" xmlns="http://www.w3.org/2000/svg" viewBox="0 0 2017.08 2010.06">
  <defs>
    <style>
      .cls-1 {
        fill: #231f20;
      }
    </style>
  </defs>
  <g id="Layer_1-2" data-name="Layer 1">
    <g>
      <rect class="cls-1" x="806.83" y="403.42" width="403.42" height="403.42"/>
      <polygon class="cls-1" points="403.42 0 0 0 0 403.42 0 806.83 403.42 806.83 403.42 403.42 806.83 403.42 806.83 0 403.42 0"/>
      <polygon class="cls-1" points="1613.67 0 1210.25 0 1210.25 403.42 1613.67 403.42 1613.67 806.83 2017.08 806.83 2017.08 403.42 2017.08 0 1613.67 0"/>
      <polygon class="cls-1" points="1613.67 1203.23 1613.67 1606.65 1210.25 1606.65 1210.25 2010.06 1613.67 2010.06 2017.08 2010.06 2017.08 1606.65 2017.08 1203.23 1613.67 1203.23"/>
      <polygon class="cls-1" points="403.42 1606.65 403.42 1203.23 0 1203.23 0 1606.65 0 2010.06 403.42 2010.06 806.83 2010.06 806.83 1606.65 403.42 1606.65"/>
      <rect class="cls-1" x="806.83" y="1203.23" width="403.42" height="403.42"/>
    </g>
  </g>
</svg>